<mxfile host="app.diagrams.net" agent="Mozilla/5.0 (Macintosh; Intel Mac OS X 10_15_7) AppleWebKit/537.36 (KHTML, like Gecko) Chrome/127.0.0.0 Safari/537.36" version="24.7.7">
  <diagram name="第 1 页" id="Dnr3Jo7YamBtelpkvfqD">
    <mxGraphModel dx="1380" dy="761" grid="1" gridSize="10" guides="1" tooltips="1" connect="1" arrows="1" fold="1" page="1" pageScale="1" pageWidth="827" pageHeight="1169" math="0" shadow="0">
      <root>
        <mxCell id="0" />
        <mxCell id="1" parent="0" />
        <mxCell id="qDoPPyr4aAENc9TVUn5Q-12" style="rounded=0;orthogonalLoop=1;jettySize=auto;html=1;exitX=0.908;exitY=0.788;exitDx=0;exitDy=0;entryX=-0.008;entryY=0.867;entryDx=0;entryDy=0;entryPerimeter=0;exitPerimeter=0;" parent="1" source="qDoPPyr4aAENc9TVUn5Q-4" target="qDoPPyr4aAENc9TVUn5Q-11" edge="1">
          <mxGeometry relative="1" as="geometry" />
        </mxCell>
        <mxCell id="qDoPPyr4aAENc9TVUn5Q-17" style="edgeStyle=orthogonalEdgeStyle;rounded=0;orthogonalLoop=1;jettySize=auto;html=1;entryX=1;entryY=0.5;entryDx=0;entryDy=0;" parent="1" source="qDoPPyr4aAENc9TVUn5Q-4" target="qDoPPyr4aAENc9TVUn5Q-16" edge="1">
          <mxGeometry relative="1" as="geometry" />
        </mxCell>
        <mxCell id="qDoPPyr4aAENc9TVUn5Q-4" value="IoT中台" style="ellipse;whiteSpace=wrap;html=1;" parent="1" vertex="1">
          <mxGeometry x="310" y="310" width="120" height="80" as="geometry" />
        </mxCell>
        <mxCell id="qDoPPyr4aAENc9TVUn5Q-6" style="edgeStyle=orthogonalEdgeStyle;rounded=0;orthogonalLoop=1;jettySize=auto;html=1;entryX=0;entryY=0;entryDx=0;entryDy=0;startArrow=none;startFill=0;" parent="1" source="qDoPPyr4aAENc9TVUn5Q-5" target="qDoPPyr4aAENc9TVUn5Q-4" edge="1">
          <mxGeometry relative="1" as="geometry">
            <Array as="points">
              <mxPoint x="328" y="260" />
              <mxPoint x="328" y="260" />
            </Array>
          </mxGeometry>
        </mxCell>
        <mxCell id="qDoPPyr4aAENc9TVUn5Q-5" value="鑫安云2.0" style="rounded=1;whiteSpace=wrap;html=1;" parent="1" vertex="1">
          <mxGeometry x="310" y="140" width="120" height="60" as="geometry" />
        </mxCell>
        <mxCell id="qDoPPyr4aAENc9TVUn5Q-7" value="注册PLC&lt;div&gt;&lt;div&gt;设备信息&lt;/div&gt;&lt;/div&gt;" style="text;html=1;align=center;verticalAlign=middle;resizable=0;points=[];autosize=1;strokeColor=none;fillColor=none;" parent="1" vertex="1">
          <mxGeometry x="295" y="223" width="70" height="40" as="geometry" />
        </mxCell>
        <mxCell id="qDoPPyr4aAENc9TVUn5Q-8" style="edgeStyle=orthogonalEdgeStyle;rounded=0;orthogonalLoop=1;jettySize=auto;html=1;exitX=1;exitY=0;exitDx=0;exitDy=0;entryX=0.85;entryY=0.983;entryDx=0;entryDy=0;entryPerimeter=0;" parent="1" source="qDoPPyr4aAENc9TVUn5Q-4" target="qDoPPyr4aAENc9TVUn5Q-5" edge="1">
          <mxGeometry relative="1" as="geometry" />
        </mxCell>
        <mxCell id="qDoPPyr4aAENc9TVUn5Q-9" value="查询对应设备&lt;div&gt;上报记录&lt;/div&gt;" style="text;html=1;align=center;verticalAlign=middle;resizable=0;points=[];autosize=1;strokeColor=none;fillColor=none;" parent="1" vertex="1">
          <mxGeometry x="364" y="223" width="100" height="40" as="geometry" />
        </mxCell>
        <mxCell id="qDoPPyr4aAENc9TVUn5Q-11" value="鑫智安" style="rounded=1;whiteSpace=wrap;html=1;" parent="1" vertex="1">
          <mxGeometry x="680" y="320" width="120" height="60" as="geometry" />
        </mxCell>
        <mxCell id="qDoPPyr4aAENc9TVUn5Q-13" style="rounded=0;orthogonalLoop=1;jettySize=auto;html=1;exitX=0;exitY=0.75;exitDx=0;exitDy=0;" parent="1" edge="1">
          <mxGeometry relative="1" as="geometry">
            <mxPoint x="680" y="338" as="sourcePoint" />
            <mxPoint x="420" y="338" as="targetPoint" />
          </mxGeometry>
        </mxCell>
        <mxCell id="qDoPPyr4aAENc9TVUn5Q-14" value="摄像设备信息注册" style="text;html=1;align=center;verticalAlign=middle;resizable=0;points=[];autosize=1;strokeColor=none;fillColor=none;" parent="1" vertex="1">
          <mxGeometry x="470" y="310" width="120" height="30" as="geometry" />
        </mxCell>
        <mxCell id="qDoPPyr4aAENc9TVUn5Q-15" value="设备视频直播、AI告警推送" style="text;html=1;align=center;verticalAlign=middle;resizable=0;points=[];autosize=1;strokeColor=none;fillColor=none;" parent="1" vertex="1">
          <mxGeometry x="460" y="368" width="170" height="30" as="geometry" />
        </mxCell>
        <mxCell id="qDoPPyr4aAENc9TVUn5Q-16" value="租户服务" style="rounded=1;whiteSpace=wrap;html=1;" parent="1" vertex="1">
          <mxGeometry x="20" y="320" width="120" height="60" as="geometry" />
        </mxCell>
        <mxCell id="qDoPPyr4aAENc9TVUn5Q-18" value="设备租户信息验证&lt;div&gt;租户关联等&lt;/div&gt;" style="text;html=1;align=center;verticalAlign=middle;resizable=0;points=[];autosize=1;strokeColor=none;fillColor=none;" parent="1" vertex="1">
          <mxGeometry x="160" y="330" width="120" height="40" as="geometry" />
        </mxCell>
      </root>
    </mxGraphModel>
  </diagram>
</mxfile>
